<svg width="108" height="136" viewBox="0 0 108 136" fill="none" xmlns="http://www.w3.org/2000/svg">
<path opacity="0.24" d="M0 12C0 5.37259 5.37258 0 12 0H96C102.627 0 108 5.37258 108 12V124C108 130.627 102.627 136 96 136H12C5.37258 136 0 130.627 0 124V12Z" fill="#919EAB"/>
<g opacity="0.24">
<path d="M16 83C16 80.2386 18.2386 78 21 78H87C89.7614 78 92 80.2386 92 83C92 85.7614 89.7614 88 87 88H21C18.2386 88 16 85.7614 16 83Z" fill="#919EAB"/>
<path d="M16 101C16 98.2386 18.2386 96 21 96H87C89.7614 96 92 98.2386 92 101C92 103.761 89.7614 106 87 106H21C18.2386 106 16 103.761 16 101Z" fill="#919EAB"/>
</g>
<g opacity="0.48">
<path d="M16 29C16 26.2386 18.2386 24 21 24H51C53.7614 24 56 26.2386 56 29C56 31.7614 53.7614 34 51 34H21C18.2386 34 16 31.7614 16 29Z" fill="#919EAB"/>
<path d="M16 65C16 62.2386 18.2386 60 21 60H51C53.7614 60 56 62.2386 56 65C56 67.7614 53.7614 70 51 70H21C18.2386 70 16 67.7614 16 65Z" fill="#919EAB"/>
<path d="M16 47C16 44.2386 18.2386 42 21 42H51C53.7614 42 56 44.2386 56 47C56 49.7614 53.7614 52 51 52H21C18.2386 52 16 49.7614 16 47Z" fill="#919EAB"/>
</g>
<path d="M88.4906 47.2548C89.0658 46.7161 89.9793 47.1202 89.9793 47.8946C89.9793 53.7872 85.1748 58.5349 79.2538 58.5349H74.7199V62.0368C74.7199 62.946 73.7387 63.4847 72.9605 63.0133L61.5583 56.0769C60.8139 55.6392 60.8139 54.5617 61.5583 54.1239L72.9267 47.1875C73.7049 46.7161 74.6861 47.2885 74.6861 48.164V51.6995H78.9831C81.9944 51.6995 84.9041 50.5547 87.1034 48.5344L88.4906 47.2548ZM78.1711 32.3382C78.1711 31.429 79.1523 30.8903 79.9305 31.3617L91.2989 38.2981C92.0432 38.7358 92.0432 39.8133 91.2989 40.2511L79.9643 47.1538C79.1861 47.6252 78.2049 47.0528 78.2049 46.1773V42.6755H73.8741C70.8628 42.6755 67.953 43.8203 65.7538 45.8406L64.3665 47.1202C63.8252 47.6252 62.9117 47.2212 62.9117 46.4804L62.9131 46.304C63.0079 40.4933 67.7754 35.8401 73.6372 35.8401H78.1711V32.3382Z" fill="#919EAB"/>
</svg>
